ply
format ascii 1.0
element vertex 1000
property float x
property float y
property float z
property uchar red
property uchar green
property uchar blue
property float alpha
property float coeff
end_header
0.0 0.0 0.0 0 0 0 1.0 1.0
0.0 0.0 0.0 0 0 0 1.0 1.0
0.0 0.0 0.0 0 0 0 1.0 1.0
0.0 0.0 0.0 0 0 0 1.0 1.0
0.0 0.0 0.0 0 0 0 1.0 1.0
0.0 0.0 0.0 0 0 0 1.0 1.0
0.0 0.0 0.0 0 0 0 1.0 1.0
0.0 0.0 0.0 0 0 0 1.0 1.0
0.0 0.0 0.0 0 0 0 1.0 1.0
0.0 0.0 0.0 0 0 0 1.0 1.0
0.0 0.0 0.0 0 0 0 1.0 1.0
0.0 0.0 0.0 0 0 0 1.0 1.0
0.0 0.0 0.0 0 0 0 1.0 1.0
0.0 0.0 0.0 0 0 0 1.0 1.0
0.0 0.0 0.0 0 0 0 1.0 1.0
0.0 0.0 0.0 0 0 0 1.0 1.0
0.0 0.0 0.0 0 0 0 1.0 1.0
0.0 0.0 0.0 0 0 0 1.0 1.0
0.0 0.0 0.0 0 0 0 1.0 1.0
0.0 0.0 0.0 0 0 0 1.0 1.0
0.0 0.0 0.0 0 0 0 1.0 1.0
0.0 0.0 0.0 0 0 0 1.0 1.0
0.0 0.0 0.0 0 0 0 1.0 1.0
0.0 0.0 0.0 0 0 0 1.0 1.0
0.0 0.0 0.0 0 0 0 1.0 1.0
0.0 0.0 0.0 0 0 0 1.0 1.0
0.0 0.0 0.0 0 0 0 1.0 1.0
0.0 0.0 0.0 0 0 0 1.0 1.0
0.0 0.0 0.0 0 0 0 1.0 1.0
0.0 0.0 0.0 0 0 0 1.0 1.0
0.0 0.0 0.0 0 0 0 1.0 1.0
0.0 0.0 0.0 0 0 0 1.0 1.0
0.0 0.0 0.0 0 0 0 1.0 1.0
0.0 0.0 0.0 0 0 0 1.0 1.0
0.0 0.0 0.0 0 0 0 1.0 1.0
0.0 0.0 0.0 0 0 0 1.0 1.0
0.0 0.0 0.0 0 0 0 1.0 1.0
0.0 0.0 0.0 0 0 0 1.0 1.0
0.0 0.0 0.0 0 0 0 1.0 1.0
0.0 0.0 0.0 0 0 0 1.0 1.0
0.0 0.0 0.0 0 0 0 1.0 1.0
0.0 0.0 0.0 0 0 0 1.0 1.0
0.0 0.0 0.0 0 0 0 1.0 1.0
0.0 0.0 0.0 0 0 0 1.0 1.0
0.0 0.0 0.0 0 0 0 1.0 1.0
0.0 0.0 0.0 0 0 0 1.0 1.0
0.0 0.0 0.0 0 0 0 1.0 1.0
0.0 0.0 0.0 0 0 0 1.0 1.0
0.0 0.0 0.0 0 0 0 1.0 1.0
0.0 0.0 0.0 0 0 0 1.0 1.0
0.0 0.0 0.0 0 0 0 1.0 1.0
0.0 0.0 0.0 0 0 0 1.0 1.0
0.0 0.0 0.0 0 0 0 1.0 1.0
0.0 0.0 0.0 0 0 0 1.0 1.0
0.0 0.0 0.0 0 0 0 1.0 1.0
0.0 0.0 0.0 0 0 0 1.0 1.0
0.0 0.0 0.0 0 0 0 1.0 1.0
0.0 0.0 0.0 0 0 0 1.0 1.0
0.0 0.0 0.0 0 0 0 1.0 1.0
0.0 0.0 0.0 0 0 0 1.0 1.0
0.0 0.0 0.0 0 0 0 1.0 1.0
0.0 0.0 0.0 0 0 0 1.0 1.0
0.0 0.0 0.0 0 0 0 1.0 1.0
0.0 0.0 0.0 0 0 0 1.0 1.0
0.0 0.0 0.0 0 0 0 1.0 1.0
0.0 0.0 0.0 0 0 0 1.0 1.0
0.0 0.0 0.0 0 0 0 1.0 1.0
0.0 0.0 0.0 0 0 0 1.0 1.0
0.0 0.0 0.0 0 0 0 1.0 1.0
0.0 0.0 0.0 0 0 0 1.0 1.0
0.0 0.0 0.0 0 0 0 1.0 1.0
0.0 0.0 0.0 0 0 0 1.0 1.0
0.0 0.0 0.0 0 0 0 1.0 1.0
0.0 0.0 0.0 0 0 0 1.0 1.0
0.0 0.0 0.0 0 0 0 1.0 1.0
0.0 0.0 0.0 0 0 0 1.0 1.0
0.0 0.0 0.0 0 0 0 1.0 1.0
0.0 0.0 0.0 0 0 0 1.0 1.0
0.0 0.0 0.0 0 0 0 1.0 1.0
0.0 0.0 0.0 0 0 0 1.0 1.0
0.0 0.0 0.0 0 0 0 1.0 1.0
0.0 0.0 0.0 0 0 0 1.0 1.0
0.0 0.0 0.0 0 0 0 1.0 1.0
0.0 0.0 0.0 0 0 0 1.0 1.0
0.0 0.0 0.0 0 0 0 1.0 1.0
0.0 0.0 0.0 0 0 0 1.0 1.0
0.0 0.0 0.0 0 0 0 1.0 1.0
0.0 0.0 0.0 0 0 0 1.0 1.0
0.0 0.0 0.0 0 0 0 1.0 1.0
0.0 0.0 0.0 0 0 0 1.0 1.0
0.0 0.0 0.0 0 0 0 1.0 1.0
0.0 0.0 0.0 0 0 0 1.0 1.0
0.0 0.0 0.0 0 0 0 1.0 1.0
0.0 0.0 0.0 0 0 0 1.0 1.0
0.0 0.0 0.0 0 0 0 1.0 1.0
0.0 0.0 0.0 0 0 0 1.0 1.0
0.0 0.0 0.0 0 0 0 1.0 1.0
0.0 0.0 0.0 0 0 0 1.0 1.0
0.0 0.0 0.0 0 0 0 1.0 1.0
0.0 0.0 0.0 0 0 0 1.0 1.0
0.0 0.0 0.0 0 0 0 1.0 1.0
0.0 0.0 0.0 0 0 0 1.0 1.0
0.0 0.0 0.0 0 0 0 1.0 1.0
0.0 0.0 0.0 0 0 0 1.0 1.0
0.0 0.0 0.0 0 0 0 1.0 1.0
0.0 0.0 0.0 0 0 0 1.0 1.0
0.0 0.0 0.0 0 0 0 1.0 1.0
0.0 0.0 0.0 0 0 0 1.0 1.0
0.0 0.0 0.0 0 0 0 1.0 1.0
0.0 0.0 0.0 0 0 0 1.0 1.0
0.0 0.0 0.0 0 0 0 1.0 1.0
0.0 0.0 0.0 0 0 0 1.0 1.0
0.0 0.0 0.0 0 0 0 1.0 1.0
0.0 0.0 0.0 0 0 0 1.0 1.0
0.0 0.0 0.0 0 0 0 1.0 1.0
0.0 0.0 0.0 0 0 0 1.0 1.0
0.0 0.0 0.0 0 0 0 1.0 1.0
0.0 0.0 0.0 0 0 0 1.0 1.0
0.0 0.0 0.0 0 0 0 1.0 1.0
0.0 0.0 0.0 0 0 0 1.0 1.0
0.0 0.0 0.0 0 0 0 1.0 1.0
0.0 0.0 0.0 0 0 0 1.0 1.0
0.0 0.0 0.0 0 0 0 1.0 1.0
0.0 0.0 0.0 0 0 0 1.0 1.0
0.0 0.0 0.0 0 0 0 1.0 1.0
0.0 0.0 0.0 0 0 0 1.0 1.0
0.0 0.0 0.0 0 0 0 1.0 1.0
0.0 0.0 0.0 0 0 0 1.0 1.0
0.0 0.0 0.0 0 0 0 1.0 1.0
0.0 0.0 0.0 0 0 0 1.0 1.0
0.0 0.0 0.0 0 0 0 1.0 1.0
0.0 0.0 0.0 0 0 0 1.0 1.0
0.0 0.0 0.0 0 0 0 1.0 1.0
0.0 0.0 0.0 0 0 0 1.0 1.0
0.0 0.0 0.0 0 0 0 1.0 1.0
0.0 0.0 0.0 0 0 0 1.0 1.0
0.0 0.0 0.0 0 0 0 1.0 1.0
0.0 0.0 0.0 0 0 0 1.0 1.0
0.0 0.0 0.0 0 0 0 1.0 1.0
0.0 0.0 0.0 0 0 0 1.0 1.0
0.0 0.0 0.0 0 0 0 1.0 1.0
0.0 0.0 0.0 0 0 0 1.0 1.0
0.0 0.0 0.0 0 0 0 1.0 1.0
0.0 0.0 0.0 0 0 0 1.0 1.0
0.0 0.0 0.0 0 0 0 1.0 1.0
0.0 0.0 0.0 0 0 0 1.0 1.0
0.0 0.0 0.0 0 0 0 1.0 1.0
0.0 0.0 0.0 0 0 0 1.0 1.0
0.0 0.0 0.0 0 0 0 1.0 1.0
0.0 0.0 0.0 0 0 0 1.0 1.0
0.0 0.0 0.0 0 0 0 1.0 1.0
0.0 0.0 0.0 0 0 0 1.0 1.0
0.0 0.0 0.0 0 0 0 1.0 1.0
0.0 0.0 0.0 0 0 0 1.0 1.0
0.0 0.0 0.0 0 0 0 1.0 1.0
0.0 0.0 0.0 0 0 0 1.0 1.0
0.0 0.0 0.0 0 0 0 1.0 1.0
0.0 0.0 0.0 0 0 0 1.0 1.0
0.0 0.0 0.0 0 0 0 1.0 1.0
0.0 0.0 0.0 0 0 0 1.0 1.0
0.0 0.0 0.0 0 0 0 1.0 1.0
0.0 0.0 0.0 0 0 0 1.0 1.0
0.0 0.0 0.0 0 0 0 1.0 1.0
0.0 0.0 0.0 0 0 0 1.0 1.0
0.0 0.0 0.0 0 0 0 1.0 1.0
0.0 0.0 0.0 0 0 0 1.0 1.0
0.0 0.0 0.0 0 0 0 1.0 1.0
0.0 0.0 0.0 0 0 0 1.0 1.0
0.0 0.0 0.0 0 0 0 1.0 1.0
0.0 0.0 0.0 0 0 0 1.0 1.0
0.0 0.0 0.0 0 0 0 1.0 1.0
0.0 0.0 0.0 0 0 0 1.0 1.0
0.0 0.0 0.0 0 0 0 1.0 1.0
0.0 0.0 0.0 0 0 0 1.0 1.0
0.0 0.0 0.0 0 0 0 1.0 1.0
0.0 0.0 0.0 0 0 0 1.0 1.0
0.0 0.0 0.0 0 0 0 1.0 1.0
0.0 0.0 0.0 0 0 0 1.0 1.0
0.0 0.0 0.0 0 0 0 1.0 1.0
0.0 0.0 0.0 0 0 0 1.0 1.0
0.0 0.0 0.0 0 0 0 1.0 1.0
0.0 0.0 0.0 0 0 0 1.0 1.0
0.0 0.0 0.0 0 0 0 1.0 1.0
0.0 0.0 0.0 0 0 0 1.0 1.0
0.0 0.0 0.0 0 0 0 1.0 1.0
0.0 0.0 0.0 0 0 0 1.0 1.0
0.0 0.0 0.0 0 0 0 1.0 1.0
0.0 0.0 0.0 0 0 0 1.0 1.0
0.0 0.0 0.0 0 0 0 1.0 1.0
0.0 0.0 0.0 0 0 0 1.0 1.0
0.0 0.0 0.0 0 0 0 1.0 1.0
0.0 0.0 0.0 0 0 0 1.0 1.0
0.0 0.0 0.0 0 0 0 1.0 1.0
0.0 0.0 0.0 0 0 0 1.0 1.0
0.0 0.0 0.0 0 0 0 1.0 1.0
0.0 0.0 0.0 0 0 0 1.0 1.0
0.0 0.0 0.0 0 0 0 1.0 1.0
0.0 0.0 0.0 0 0 0 1.0 1.0
0.0 0.0 0.0 0 0 0 1.0 1.0
0.0 0.0 0.0 0 0 0 1.0 1.0
0.0 0.0 0.0 0 0 0 1.0 1.0
0.0 0.0 0.0 0 0 0 1.0 1.0
0.0 0.0 0.0 0 0 0 1.0 1.0
0.0 0.0 0.0 0 0 0 1.0 1.0
0.0 0.0 0.0 0 0 0 1.0 1.0
0.0 0.0 0.0 0 0 0 1.0 1.0
0.0 0.0 0.0 0 0 0 1.0 1.0
0.0 0.0 0.0 0 0 0 1.0 1.0
0.0 0.0 0.0 0 0 0 1.0 1.0
0.0 0.0 0.0 0 0 0 1.0 1.0
0.0 0.0 0.0 0 0 0 1.0 1.0
0.0 0.0 0.0 0 0 0 1.0 1.0
0.0 0.0 0.0 0 0 0 1.0 1.0
0.0 0.0 0.0 0 0 0 1.0 1.0
0.0 0.0 0.0 0 0 0 1.0 1.0
0.0 0.0 0.0 0 0 0 1.0 1.0
0.0 0.0 0.0 0 0 0 1.0 1.0
0.0 0.0 0.0 0 0 0 1.0 1.0
0.0 0.0 0.0 0 0 0 1.0 1.0
0.0 0.0 0.0 0 0 0 1.0 1.0
0.0 0.0 0.0 0 0 0 1.0 1.0
0.0 0.0 0.0 0 0 0 1.0 1.0
0.0 0.0 0.0 0 0 0 1.0 1.0
0.0 0.0 0.0 0 0 0 1.0 1.0
0.0 0.0 0.0 0 0 0 1.0 1.0
0.0 0.0 0.0 0 0 0 1.0 1.0
0.0 0.0 0.0 0 0 0 1.0 1.0
0.0 0.0 0.0 0 0 0 1.0 1.0
0.0 0.0 0.0 0 0 0 1.0 1.0
0.0 0.0 0.0 0 0 0 1.0 1.0
0.0 0.0 0.0 0 0 0 1.0 1.0
0.0 0.0 0.0 0 0 0 1.0 1.0
0.0 0.0 0.0 0 0 0 1.0 1.0
0.0 0.0 0.0 0 0 0 1.0 1.0
0.0 0.0 0.0 0 0 0 1.0 1.0
0.0 0.0 0.0 0 0 0 1.0 1.0
0.0 0.0 0.0 0 0 0 1.0 1.0
0.0 0.0 0.0 0 0 0 1.0 1.0
0.0 0.0 0.0 0 0 0 1.0 1.0
0.0 0.0 0.0 0 0 0 1.0 1.0
0.0 0.0 0.0 0 0 0 1.0 1.0
0.0 0.0 0.0 0 0 0 1.0 1.0
0.0 0.0 0.0 0 0 0 1.0 1.0
0.0 0.0 0.0 0 0 0 1.0 1.0
0.0 0.0 0.0 0 0 0 1.0 1.0
0.0 0.0 0.0 0 0 0 1.0 1.0
0.0 0.0 0.0 0 0 0 1.0 1.0
0.0 0.0 0.0 0 0 0 1.0 1.0
0.0 0.0 0.0 0 0 0 1.0 1.0
0.0 0.0 0.0 0 0 0 1.0 1.0
0.0 0.0 0.0 0 0 0 1.0 1.0
0.0 0.0 0.0 0 0 0 1.0 1.0
0.0 0.0 0.0 0 0 0 1.0 1.0
0.0 0.0 0.0 0 0 0 1.0 1.0
0.0 0.0 0.0 0 0 0 1.0 1.0
0.0 0.0 0.0 0 0 0 1.0 1.0
0.0 0.0 0.0 0 0 0 1.0 1.0
0.0 0.0 0.0 0 0 0 1.0 1.0
0.0 0.0 0.0 0 0 0 1.0 1.0
0.0 0.0 0.0 0 0 0 1.0 1.0
0.0 0.0 0.0 0 0 0 1.0 1.0
0.0 0.0 0.0 0 0 0 1.0 1.0
0.0 0.0 0.0 0 0 0 1.0 1.0
0.0 0.0 0.0 0 0 0 1.0 1.0
0.0 0.0 0.0 0 0 0 1.0 1.0
0.0 0.0 0.0 0 0 0 1.0 1.0
0.0 0.0 0.0 0 0 0 1.0 1.0
0.0 0.0 0.0 0 0 0 1.0 1.0
0.0 0.0 0.0 0 0 0 1.0 1.0
0.0 0.0 0.0 0 0 0 1.0 1.0
0.0 0.0 0.0 0 0 0 1.0 1.0
0.0 0.0 0.0 0 0 0 1.0 1.0
0.0 0.0 0.0 0 0 0 1.0 1.0
0.0 0.0 0.0 0 0 0 1.0 1.0
0.0 0.0 0.0 0 0 0 1.0 1.0
0.0 0.0 0.0 0 0 0 1.0 1.0
0.0 0.0 0.0 0 0 0 1.0 1.0
0.0 0.0 0.0 0 0 0 1.0 1.0
0.0 0.0 0.0 0 0 0 1.0 1.0
0.0 0.0 0.0 0 0 0 1.0 1.0
0.0 0.0 0.0 0 0 0 1.0 1.0
0.0 0.0 0.0 0 0 0 1.0 1.0
0.0 0.0 0.0 0 0 0 1.0 1.0
0.0 0.0 0.0 0 0 0 1.0 1.0
0.0 0.0 0.0 0 0 0 1.0 1.0
0.0 0.0 0.0 0 0 0 1.0 1.0
0.0 0.0 0.0 0 0 0 1.0 1.0
0.0 0.0 0.0 0 0 0 1.0 1.0
0.0 0.0 0.0 0 0 0 1.0 1.0
0.0 0.0 0.0 0 0 0 1.0 1.0
0.0 0.0 0.0 0 0 0 1.0 1.0
0.0 0.0 0.0 0 0 0 1.0 1.0
0.0 0.0 0.0 0 0 0 1.0 1.0
0.0 0.0 0.0 0 0 0 1.0 1.0
0.0 0.0 0.0 0 0 0 1.0 1.0
0.0 0.0 0.0 0 0 0 1.0 1.0
0.0 0.0 0.0 0 0 0 1.0 1.0
0.0 0.0 0.0 0 0 0 1.0 1.0
0.0 0.0 0.0 0 0 0 1.0 1.0
0.0 0.0 0.0 0 0 0 1.0 1.0
0.0 0.0 0.0 0 0 0 1.0 1.0
0.0 0.0 0.0 0 0 0 1.0 1.0
0.0 0.0 0.0 0 0 0 1.0 1.0
0.0 0.0 0.0 0 0 0 1.0 1.0
0.0 0.0 0.0 0 0 0 1.0 1.0
0.0 0.0 0.0 0 0 0 1.0 1.0
0.0 0.0 0.0 0 0 0 1.0 1.0
0.0 0.0 0.0 0 0 0 1.0 1.0
0.0 0.0 0.0 0 0 0 1.0 1.0
0.0 0.0 0.0 0 0 0 1.0 1.0
0.0 0.0 0.0 0 0 0 1.0 1.0
0.0 0.0 0.0 0 0 0 1.0 1.0
0.0 0.0 0.0 0 0 0 1.0 1.0
0.0 0.0 0.0 0 0 0 1.0 1.0
0.0 0.0 0.0 0 0 0 1.0 1.0
0.0 0.0 0.0 0 0 0 1.0 1.0
0.0 0.0 0.0 0 0 0 1.0 1.0
0.0 0.0 0.0 0 0 0 1.0 1.0
0.0 0.0 0.0 0 0 0 1.0 1.0
0.0 0.0 0.0 0 0 0 1.0 1.0
0.0 0.0 0.0 0 0 0 1.0 1.0
0.0 0.0 0.0 0 0 0 1.0 1.0
0.0 0.0 0.0 0 0 0 1.0 1.0
0.0 0.0 0.0 0 0 0 1.0 1.0
0.0 0.0 0.0 0 0 0 1.0 1.0
0.0 0.0 0.0 0 0 0 1.0 1.0
0.0 0.0 0.0 0 0 0 1.0 1.0
0.0 0.0 0.0 0 0 0 1.0 1.0
0.0 0.0 0.0 0 0 0 1.0 1.0
0.0 0.0 0.0 0 0 0 1.0 1.0
0.0 0.0 0.0 0 0 0 1.0 1.0
0.0 0.0 0.0 0 0 0 1.0 1.0
0.0 0.0 0.0 0 0 0 1.0 1.0
0.0 0.0 0.0 0 0 0 1.0 1.0
0.0 0.0 0.0 0 0 0 1.0 1.0
0.0 0.0 0.0 0 0 0 1.0 1.0
0.0 0.0 0.0 0 0 0 1.0 1.0
0.0 0.0 0.0 0 0 0 1.0 1.0
0.0 0.0 0.0 0 0 0 1.0 1.0
0.0 0.0 0.0 0 0 0 1.0 1.0
0.0 0.0 0.0 0 0 0 1.0 1.0
0.0 0.0 0.0 0 0 0 1.0 1.0
0.0 0.0 0.0 0 0 0 1.0 1.0
0.0 0.0 0.0 0 0 0 1.0 1.0
0.0 0.0 0.0 0 0 0 1.0 1.0
0.0 0.0 0.0 0 0 0 1.0 1.0
0.0 0.0 0.0 0 0 0 1.0 1.0
0.0 0.0 0.0 0 0 0 1.0 1.0
0.0 0.0 0.0 0 0 0 1.0 1.0
0.0 0.0 0.0 0 0 0 1.0 1.0
0.0 0.0 0.0 0 0 0 1.0 1.0
0.0 0.0 0.0 0 0 0 1.0 1.0
0.0 0.0 0.0 0 0 0 1.0 1.0
0.0 0.0 0.0 0 0 0 1.0 1.0
0.0 0.0 0.0 0 0 0 1.0 1.0
0.0 0.0 0.0 0 0 0 1.0 1.0
0.0 0.0 0.0 0 0 0 1.0 1.0
0.0 0.0 0.0 0 0 0 1.0 1.0
0.0 0.0 0.0 0 0 0 1.0 1.0
0.0 0.0 0.0 0 0 0 1.0 1.0
0.0 0.0 0.0 0 0 0 1.0 1.0
0.0 0.0 0.0 0 0 0 1.0 1.0
0.0 0.0 0.0 0 0 0 1.0 1.0
0.0 0.0 0.0 0 0 0 1.0 1.0
0.0 0.0 0.0 0 0 0 1.0 1.0
0.0 0.0 0.0 0 0 0 1.0 1.0
0.0 0.0 0.0 0 0 0 1.0 1.0
0.0 0.0 0.0 0 0 0 1.0 1.0
0.0 0.0 0.0 0 0 0 1.0 1.0
0.0 0.0 0.0 0 0 0 1.0 1.0
0.0 0.0 0.0 0 0 0 1.0 1.0
0.0 0.0 0.0 0 0 0 1.0 1.0
0.0 0.0 0.0 0 0 0 1.0 1.0
0.0 0.0 0.0 0 0 0 1.0 1.0
0.0 0.0 0.0 0 0 0 1.0 1.0
0.0 0.0 0.0 0 0 0 1.0 1.0
0.0 0.0 0.0 0 0 0 1.0 1.0
0.0 0.0 0.0 0 0 0 1.0 1.0
0.0 0.0 0.0 0 0 0 1.0 1.0
0.0 0.0 0.0 0 0 0 1.0 1.0
0.0 0.0 0.0 0 0 0 1.0 1.0
0.0 0.0 0.0 0 0 0 1.0 1.0
0.0 0.0 0.0 0 0 0 1.0 1.0
0.0 0.0 0.0 0 0 0 1.0 1.0
0.0 0.0 0.0 0 0 0 1.0 1.0
0.0 0.0 0.0 0 0 0 1.0 1.0
0.0 0.0 0.0 0 0 0 1.0 1.0
0.0 0.0 0.0 0 0 0 1.0 1.0
0.0 0.0 0.0 0 0 0 1.0 1.0
0.0 0.0 0.0 0 0 0 1.0 1.0
0.0 0.0 0.0 0 0 0 1.0 1.0
0.0 0.0 0.0 0 0 0 1.0 1.0
0.0 0.0 0.0 0 0 0 1.0 1.0
0.0 0.0 0.0 0 0 0 1.0 1.0
0.0 0.0 0.0 0 0 0 1.0 1.0
0.0 0.0 0.0 0 0 0 1.0 1.0
0.0 0.0 0.0 0 0 0 1.0 1.0
0.0 0.0 0.0 0 0 0 1.0 1.0
0.0 0.0 0.0 0 0 0 1.0 1.0
0.0 0.0 0.0 0 0 0 1.0 1.0
0.0 0.0 0.0 0 0 0 1.0 1.0
0.0 0.0 0.0 0 0 0 1.0 1.0
0.0 0.0 0.0 0 0 0 1.0 1.0
0.0 0.0 0.0 0 0 0 1.0 1.0
0.0 0.0 0.0 0 0 0 1.0 1.0
0.0 0.0 0.0 0 0 0 1.0 1.0
0.0 0.0 0.0 0 0 0 1.0 1.0
0.0 0.0 0.0 0 0 0 1.0 1.0
0.0 0.0 0.0 0 0 0 1.0 1.0
0.0 0.0 0.0 0 0 0 1.0 1.0
0.0 0.0 0.0 0 0 0 1.0 1.0
0.0 0.0 0.0 0 0 0 1.0 1.0
0.0 0.0 0.0 0 0 0 1.0 1.0
0.0 0.0 0.0 0 0 0 1.0 1.0
0.0 0.0 0.0 0 0 0 1.0 1.0
0.0 0.0 0.0 0 0 0 1.0 1.0
0.0 0.0 0.0 0 0 0 1.0 1.0
0.0 0.0 0.0 0 0 0 1.0 1.0
0.0 0.0 0.0 0 0 0 1.0 1.0
0.0 0.0 0.0 0 0 0 1.0 1.0
0.0 0.0 0.0 0 0 0 1.0 1.0
0.0 0.0 0.0 0 0 0 1.0 1.0
0.0 0.0 0.0 0 0 0 1.0 1.0
0.0 0.0 0.0 0 0 0 1.0 1.0
0.0 0.0 0.0 0 0 0 1.0 1.0
0.0 0.0 0.0 0 0 0 1.0 1.0
0.0 0.0 0.0 0 0 0 1.0 1.0
0.0 0.0 0.0 0 0 0 1.0 1.0
0.0 0.0 0.0 0 0 0 1.0 1.0
0.0 0.0 0.0 0 0 0 1.0 1.0
0.0 0.0 0.0 0 0 0 1.0 1.0
0.0 0.0 0.0 0 0 0 1.0 1.0
0.0 0.0 0.0 0 0 0 1.0 1.0
0.0 0.0 0.0 0 0 0 1.0 1.0
0.0 0.0 0.0 0 0 0 1.0 1.0
0.0 0.0 0.0 0 0 0 1.0 1.0
0.0 0.0 0.0 0 0 0 1.0 1.0
0.0 0.0 0.0 0 0 0 1.0 1.0
0.0 0.0 0.0 0 0 0 1.0 1.0
0.0 0.0 0.0 0 0 0 1.0 1.0
0.0 0.0 0.0 0 0 0 1.0 1.0
0.0 0.0 0.0 0 0 0 1.0 1.0
0.0 0.0 0.0 0 0 0 1.0 1.0
0.0 0.0 0.0 0 0 0 1.0 1.0
0.0 0.0 0.0 0 0 0 1.0 1.0
0.0 0.0 0.0 0 0 0 1.0 1.0
0.0 0.0 0.0 0 0 0 1.0 1.0
0.0 0.0 0.0 0 0 0 1.0 1.0
0.0 0.0 0.0 0 0 0 1.0 1.0
0.0 0.0 0.0 0 0 0 1.0 1.0
0.0 0.0 0.0 0 0 0 1.0 1.0
0.0 0.0 0.0 0 0 0 1.0 1.0
0.0 0.0 0.0 0 0 0 1.0 1.0
0.0 0.0 0.0 0 0 0 1.0 1.0
0.0 0.0 0.0 0 0 0 1.0 1.0
0.0 0.0 0.0 0 0 0 1.0 1.0
0.0 0.0 0.0 0 0 0 1.0 1.0
0.0 0.0 0.0 0 0 0 1.0 1.0
0.0 0.0 0.0 0 0 0 1.0 1.0
0.0 0.0 0.0 0 0 0 1.0 1.0
0.0 0.0 0.0 0 0 0 1.0 1.0
0.0 0.0 0.0 0 0 0 1.0 1.0
0.0 0.0 0.0 0 0 0 1.0 1.0
0.0 0.0 0.0 0 0 0 1.0 1.0
0.0 0.0 0.0 0 0 0 1.0 1.0
0.0 0.0 0.0 0 0 0 1.0 1.0
0.0 0.0 0.0 0 0 0 1.0 1.0
0.0 0.0 0.0 0 0 0 1.0 1.0
0.0 0.0 0.0 0 0 0 1.0 1.0
0.0 0.0 0.0 0 0 0 1.0 1.0
0.0 0.0 0.0 0 0 0 1.0 1.0
0.0 0.0 0.0 0 0 0 1.0 1.0
0.0 0.0 0.0 0 0 0 1.0 1.0
0.0 0.0 0.0 0 0 0 1.0 1.0
0.0 0.0 0.0 0 0 0 1.0 1.0
0.0 0.0 0.0 0 0 0 1.0 1.0
0.0 0.0 0.0 0 0 0 1.0 1.0
0.0 0.0 0.0 0 0 0 1.0 1.0
0.0 0.0 0.0 0 0 0 1.0 1.0
0.0 0.0 0.0 0 0 0 1.0 1.0
0.0 0.0 0.0 0 0 0 1.0 1.0
0.0 0.0 0.0 0 0 0 1.0 1.0
0.0 0.0 0.0 0 0 0 1.0 1.0
0.0 0.0 0.0 0 0 0 1.0 1.0
0.0 0.0 0.0 0 0 0 1.0 1.0
0.0 0.0 0.0 0 0 0 1.0 1.0
0.0 0.0 0.0 0 0 0 1.0 1.0
0.0 0.0 0.0 0 0 0 1.0 1.0
0.0 0.0 0.0 0 0 0 1.0 1.0
0.0 0.0 0.0 0 0 0 1.0 1.0
0.0 0.0 0.0 0 0 0 1.0 1.0
0.0 0.0 0.0 0 0 0 1.0 1.0
0.0 0.0 0.0 0 0 0 1.0 1.0
0.0 0.0 0.0 0 0 0 1.0 1.0
0.0 0.0 0.0 0 0 0 1.0 1.0
0.0 0.0 0.0 0 0 0 1.0 1.0
0.0 0.0 0.0 0 0 0 1.0 1.0
0.0 0.0 0.0 0 0 0 1.0 1.0
0.0 0.0 0.0 0 0 0 1.0 1.0
0.0 0.0 0.0 0 0 0 1.0 1.0
0.0 0.0 0.0 0 0 0 1.0 1.0
0.0 0.0 0.0 0 0 0 1.0 1.0
0.0 0.0 0.0 0 0 0 1.0 1.0
0.0 0.0 0.0 0 0 0 1.0 1.0
0.0 0.0 0.0 0 0 0 1.0 1.0
0.0 0.0 0.0 0 0 0 1.0 1.0
0.0 0.0 0.0 0 0 0 1.0 1.0
0.0 0.0 0.0 0 0 0 1.0 1.0
0.0 0.0 0.0 0 0 0 1.0 1.0
0.0 0.0 0.0 0 0 0 1.0 1.0
0.0 0.0 0.0 0 0 0 1.0 1.0
0.0 0.0 0.0 0 0 0 1.0 1.0
0.0 0.0 0.0 0 0 0 1.0 1.0
0.0 0.0 0.0 0 0 0 1.0 1.0
0.0 0.0 0.0 0 0 0 1.0 1.0
0.0 0.0 0.0 0 0 0 1.0 1.0
0.0 0.0 0.0 0 0 0 1.0 1.0
0.0 0.0 0.0 0 0 0 1.0 1.0
0.0 0.0 0.0 0 0 0 1.0 1.0
0.0 0.0 0.0 0 0 0 1.0 1.0
0.0 0.0 0.0 0 0 0 1.0 1.0
0.0 0.0 0.0 0 0 0 1.0 1.0
0.0 0.0 0.0 0 0 0 1.0 1.0
0.0 0.0 0.0 0 0 0 1.0 1.0
0.0 0.0 0.0 0 0 0 1.0 1.0
0.0 0.0 0.0 0 0 0 1.0 1.0
0.0 0.0 0.0 0 0 0 1.0 1.0
0.0 0.0 0.0 0 0 0 1.0 1.0
0.0 0.0 0.0 0 0 0 1.0 1.0
0.0 0.0 0.0 0 0 0 1.0 1.0
0.0 0.0 0.0 0 0 0 1.0 1.0
0.0 0.0 0.0 0 0 0 1.0 1.0
0.0 0.0 0.0 0 0 0 1.0 1.0
0.0 0.0 0.0 0 0 0 1.0 1.0
0.0 0.0 0.0 0 0 0 1.0 1.0
0.0 0.0 0.0 0 0 0 1.0 1.0
0.0 0.0 0.0 0 0 0 1.0 1.0
0.0 0.0 0.0 0 0 0 1.0 1.0
0.0 0.0 0.0 0 0 0 1.0 1.0
0.0 0.0 0.0 0 0 0 1.0 1.0
0.0 0.0 0.0 0 0 0 1.0 1.0
0.0 0.0 0.0 0 0 0 1.0 1.0
0.0 0.0 0.0 0 0 0 1.0 1.0
0.0 0.0 0.0 0 0 0 1.0 1.0
0.0 0.0 0.0 0 0 0 1.0 1.0
0.0 0.0 0.0 0 0 0 1.0 1.0
0.0 0.0 0.0 0 0 0 1.0 1.0
0.0 0.0 0.0 0 0 0 1.0 1.0
0.0 0.0 0.0 0 0 0 1.0 1.0
0.0 0.0 0.0 0 0 0 1.0 1.0
0.0 0.0 0.0 0 0 0 1.0 1.0
0.0 0.0 0.0 0 0 0 1.0 1.0
0.0 0.0 0.0 0 0 0 1.0 1.0
0.0 0.0 0.0 0 0 0 1.0 1.0
0.0 0.0 0.0 0 0 0 1.0 1.0
0.0 0.0 0.0 0 0 0 1.0 1.0
0.0 0.0 0.0 0 0 0 1.0 1.0
0.0 0.0 0.0 0 0 0 1.0 1.0
0.0 0.0 0.0 0 0 0 1.0 1.0
0.0 0.0 0.0 0 0 0 1.0 1.0
0.0 0.0 0.0 0 0 0 1.0 1.0
0.0 0.0 0.0 0 0 0 1.0 1.0
0.0 0.0 0.0 0 0 0 1.0 1.0
0.0 0.0 0.0 0 0 0 1.0 1.0
0.0 0.0 0.0 0 0 0 1.0 1.0
0.0 0.0 0.0 0 0 0 1.0 1.0
0.0 0.0 0.0 0 0 0 1.0 1.0
0.0 0.0 0.0 0 0 0 1.0 1.0
0.0 0.0 0.0 0 0 0 1.0 1.0
0.0 0.0 0.0 0 0 0 1.0 1.0
0.0 0.0 0.0 0 0 0 1.0 1.0
0.0 0.0 0.0 0 0 0 1.0 1.0
0.0 0.0 0.0 0 0 0 1.0 1.0
0.0 0.0 0.0 0 0 0 1.0 1.0
0.0 0.0 0.0 0 0 0 1.0 1.0
0.0 0.0 0.0 0 0 0 1.0 1.0
0.0 0.0 0.0 0 0 0 1.0 1.0
0.0 0.0 0.0 0 0 0 1.0 1.0
0.0 0.0 0.0 0 0 0 1.0 1.0
0.0 0.0 0.0 0 0 0 1.0 1.0
0.0 0.0 0.0 0 0 0 1.0 1.0
0.0 0.0 0.0 0 0 0 1.0 1.0
0.0 0.0 0.0 0 0 0 1.0 1.0
0.0 0.0 0.0 0 0 0 1.0 1.0
0.0 0.0 0.0 0 0 0 1.0 1.0
0.0 0.0 0.0 0 0 0 1.0 1.0
0.0 0.0 0.0 0 0 0 1.0 1.0
0.0 0.0 0.0 0 0 0 1.0 1.0
0.0 0.0 0.0 0 0 0 1.0 1.0
0.0 0.0 0.0 0 0 0 1.0 1.0
0.0 0.0 0.0 0 0 0 1.0 1.0
0.0 0.0 0.0 0 0 0 1.0 1.0
0.0 0.0 0.0 0 0 0 1.0 1.0
0.0 0.0 0.0 0 0 0 1.0 1.0
0.0 0.0 0.0 0 0 0 1.0 1.0
0.0 0.0 0.0 0 0 0 1.0 1.0
0.0 0.0 0.0 0 0 0 1.0 1.0
0.0 0.0 0.0 0 0 0 1.0 1.0
0.0 0.0 0.0 0 0 0 1.0 1.0
0.0 0.0 0.0 0 0 0 1.0 1.0
0.0 0.0 0.0 0 0 0 1.0 1.0
0.0 0.0 0.0 0 0 0 1.0 1.0
0.0 0.0 0.0 0 0 0 1.0 1.0
0.0 0.0 0.0 0 0 0 1.0 1.0
0.0 0.0 0.0 0 0 0 1.0 1.0
0.0 0.0 0.0 0 0 0 1.0 1.0
0.0 0.0 0.0 0 0 0 1.0 1.0
0.0 0.0 0.0 0 0 0 1.0 1.0
0.0 0.0 0.0 0 0 0 1.0 1.0
0.0 0.0 0.0 0 0 0 1.0 1.0
0.0 0.0 0.0 0 0 0 1.0 1.0
0.0 0.0 0.0 0 0 0 1.0 1.0
0.0 0.0 0.0 0 0 0 1.0 1.0
0.0 0.0 0.0 0 0 0 1.0 1.0
0.0 0.0 0.0 0 0 0 1.0 1.0
0.0 0.0 0.0 0 0 0 1.0 1.0
0.0 0.0 0.0 0 0 0 1.0 1.0
0.0 0.0 0.0 0 0 0 1.0 1.0
0.0 0.0 0.0 0 0 0 1.0 1.0
0.0 0.0 0.0 0 0 0 1.0 1.0
0.0 0.0 0.0 0 0 0 1.0 1.0
0.0 0.0 0.0 0 0 0 1.0 1.0
0.0 0.0 0.0 0 0 0 1.0 1.0
0.0 0.0 0.0 0 0 0 1.0 1.0
0.0 0.0 0.0 0 0 0 1.0 1.0
0.0 0.0 0.0 0 0 0 1.0 1.0
0.0 0.0 0.0 0 0 0 1.0 1.0
0.0 0.0 0.0 0 0 0 1.0 1.0
0.0 0.0 0.0 0 0 0 1.0 1.0
0.0 0.0 0.0 0 0 0 1.0 1.0
0.0 0.0 0.0 0 0 0 1.0 1.0
0.0 0.0 0.0 0 0 0 1.0 1.0
0.0 0.0 0.0 0 0 0 1.0 1.0
0.0 0.0 0.0 0 0 0 1.0 1.0
0.0 0.0 0.0 0 0 0 1.0 1.0
0.0 0.0 0.0 0 0 0 1.0 1.0
0.0 0.0 0.0 0 0 0 1.0 1.0
0.0 0.0 0.0 0 0 0 1.0 1.0
0.0 0.0 0.0 0 0 0 1.0 1.0
0.0 0.0 0.0 0 0 0 1.0 1.0
0.0 0.0 0.0 0 0 0 1.0 1.0
0.0 0.0 0.0 0 0 0 1.0 1.0
0.0 0.0 0.0 0 0 0 1.0 1.0
0.0 0.0 0.0 0 0 0 1.0 1.0
0.0 0.0 0.0 0 0 0 1.0 1.0
0.0 0.0 0.0 0 0 0 1.0 1.0
0.0 0.0 0.0 0 0 0 1.0 1.0
0.0 0.0 0.0 0 0 0 1.0 1.0
0.0 0.0 0.0 0 0 0 1.0 1.0
0.0 0.0 0.0 0 0 0 1.0 1.0
0.0 0.0 0.0 0 0 0 1.0 1.0
0.0 0.0 0.0 0 0 0 1.0 1.0
0.0 0.0 0.0 0 0 0 1.0 1.0
0.0 0.0 0.0 0 0 0 1.0 1.0
0.0 0.0 0.0 0 0 0 1.0 1.0
0.0 0.0 0.0 0 0 0 1.0 1.0
0.0 0.0 0.0 0 0 0 1.0 1.0
0.0 0.0 0.0 0 0 0 1.0 1.0
0.0 0.0 0.0 0 0 0 1.0 1.0
0.0 0.0 0.0 0 0 0 1.0 1.0
0.0 0.0 0.0 0 0 0 1.0 1.0
0.0 0.0 0.0 0 0 0 1.0 1.0
0.0 0.0 0.0 0 0 0 1.0 1.0
0.0 0.0 0.0 0 0 0 1.0 1.0
0.0 0.0 0.0 0 0 0 1.0 1.0
0.0 0.0 0.0 0 0 0 1.0 1.0
0.0 0.0 0.0 0 0 0 1.0 1.0
0.0 0.0 0.0 0 0 0 1.0 1.0
0.0 0.0 0.0 0 0 0 1.0 1.0
0.0 0.0 0.0 0 0 0 1.0 1.0
0.0 0.0 0.0 0 0 0 1.0 1.0
0.0 0.0 0.0 0 0 0 1.0 1.0
0.0 0.0 0.0 0 0 0 1.0 1.0
0.0 0.0 0.0 0 0 0 1.0 1.0
0.0 0.0 0.0 0 0 0 1.0 1.0
0.0 0.0 0.0 0 0 0 1.0 1.0
0.0 0.0 0.0 0 0 0 1.0 1.0
0.0 0.0 0.0 0 0 0 1.0 1.0
0.0 0.0 0.0 0 0 0 1.0 1.0
0.0 0.0 0.0 0 0 0 1.0 1.0
0.0 0.0 0.0 0 0 0 1.0 1.0
0.0 0.0 0.0 0 0 0 1.0 1.0
0.0 0.0 0.0 0 0 0 1.0 1.0
0.0 0.0 0.0 0 0 0 1.0 1.0
0.0 0.0 0.0 0 0 0 1.0 1.0
0.0 0.0 0.0 0 0 0 1.0 1.0
0.0 0.0 0.0 0 0 0 1.0 1.0
0.0 0.0 0.0 0 0 0 1.0 1.0
0.0 0.0 0.0 0 0 0 1.0 1.0
0.0 0.0 0.0 0 0 0 1.0 1.0
0.0 0.0 0.0 0 0 0 1.0 1.0
0.0 0.0 0.0 0 0 0 1.0 1.0
0.0 0.0 0.0 0 0 0 1.0 1.0
0.0 0.0 0.0 0 0 0 1.0 1.0
0.0 0.0 0.0 0 0 0 1.0 1.0
0.0 0.0 0.0 0 0 0 1.0 1.0
0.0 0.0 0.0 0 0 0 1.0 1.0
0.0 0.0 0.0 0 0 0 1.0 1.0
0.0 0.0 0.0 0 0 0 1.0 1.0
0.0 0.0 0.0 0 0 0 1.0 1.0
0.0 0.0 0.0 0 0 0 1.0 1.0
0.0 0.0 0.0 0 0 0 1.0 1.0
0.0 0.0 0.0 0 0 0 1.0 1.0
0.0 0.0 0.0 0 0 0 1.0 1.0
0.0 0.0 0.0 0 0 0 1.0 1.0
0.0 0.0 0.0 0 0 0 1.0 1.0
0.0 0.0 0.0 0 0 0 1.0 1.0
0.0 0.0 0.0 0 0 0 1.0 1.0
0.0 0.0 0.0 0 0 0 1.0 1.0
0.0 0.0 0.0 0 0 0 1.0 1.0
0.0 0.0 0.0 0 0 0 1.0 1.0
0.0 0.0 0.0 0 0 0 1.0 1.0
0.0 0.0 0.0 0 0 0 1.0 1.0
0.0 0.0 0.0 0 0 0 1.0 1.0
0.0 0.0 0.0 0 0 0 1.0 1.0
0.0 0.0 0.0 0 0 0 1.0 1.0
0.0 0.0 0.0 0 0 0 1.0 1.0
0.0 0.0 0.0 0 0 0 1.0 1.0
0.0 0.0 0.0 0 0 0 1.0 1.0
0.0 0.0 0.0 0 0 0 1.0 1.0
0.0 0.0 0.0 0 0 0 1.0 1.0
0.0 0.0 0.0 0 0 0 1.0 1.0
0.0 0.0 0.0 0 0 0 1.0 1.0
0.0 0.0 0.0 0 0 0 1.0 1.0
0.0 0.0 0.0 0 0 0 1.0 1.0
0.0 0.0 0.0 0 0 0 1.0 1.0
0.0 0.0 0.0 0 0 0 1.0 1.0
0.0 0.0 0.0 0 0 0 1.0 1.0
0.0 0.0 0.0 0 0 0 1.0 1.0
0.0 0.0 0.0 0 0 0 1.0 1.0
0.0 0.0 0.0 0 0 0 1.0 1.0
0.0 0.0 0.0 0 0 0 1.0 1.0
0.0 0.0 0.0 0 0 0 1.0 1.0
0.0 0.0 0.0 0 0 0 1.0 1.0
0.0 0.0 0.0 0 0 0 1.0 1.0
0.0 0.0 0.0 0 0 0 1.0 1.0
0.0 0.0 0.0 0 0 0 1.0 1.0
0.0 0.0 0.0 0 0 0 1.0 1.0
0.0 0.0 0.0 0 0 0 1.0 1.0
0.0 0.0 0.0 0 0 0 1.0 1.0
0.0 0.0 0.0 0 0 0 1.0 1.0
0.0 0.0 0.0 0 0 0 1.0 1.0
0.0 0.0 0.0 0 0 0 1.0 1.0
0.0 0.0 0.0 0 0 0 1.0 1.0
0.0 0.0 0.0 0 0 0 1.0 1.0
0.0 0.0 0.0 0 0 0 1.0 1.0
0.0 0.0 0.0 0 0 0 1.0 1.0
0.0 0.0 0.0 0 0 0 1.0 1.0
0.0 0.0 0.0 0 0 0 1.0 1.0
0.0 0.0 0.0 0 0 0 1.0 1.0
0.0 0.0 0.0 0 0 0 1.0 1.0
0.0 0.0 0.0 0 0 0 1.0 1.0
0.0 0.0 0.0 0 0 0 1.0 1.0
0.0 0.0 0.0 0 0 0 1.0 1.0
0.0 0.0 0.0 0 0 0 1.0 1.0
0.0 0.0 0.0 0 0 0 1.0 1.0
0.0 0.0 0.0 0 0 0 1.0 1.0
0.0 0.0 0.0 0 0 0 1.0 1.0
0.0 0.0 0.0 0 0 0 1.0 1.0
0.0 0.0 0.0 0 0 0 1.0 1.0
0.0 0.0 0.0 0 0 0 1.0 1.0
0.0 0.0 0.0 0 0 0 1.0 1.0
0.0 0.0 0.0 0 0 0 1.0 1.0
0.0 0.0 0.0 0 0 0 1.0 1.0
0.0 0.0 0.0 0 0 0 1.0 1.0
0.0 0.0 0.0 0 0 0 1.0 1.0
0.0 0.0 0.0 0 0 0 1.0 1.0
0.0 0.0 0.0 0 0 0 1.0 1.0
0.0 0.0 0.0 0 0 0 1.0 1.0
0.0 0.0 0.0 0 0 0 1.0 1.0
0.0 0.0 0.0 0 0 0 1.0 1.0
0.0 0.0 0.0 0 0 0 1.0 1.0
0.0 0.0 0.0 0 0 0 1.0 1.0
0.0 0.0 0.0 0 0 0 1.0 1.0
0.0 0.0 0.0 0 0 0 1.0 1.0
0.0 0.0 0.0 0 0 0 1.0 1.0
0.0 0.0 0.0 0 0 0 1.0 1.0
0.0 0.0 0.0 0 0 0 1.0 1.0
0.0 0.0 0.0 0 0 0 1.0 1.0
0.0 0.0 0.0 0 0 0 1.0 1.0
0.0 0.0 0.0 0 0 0 1.0 1.0
0.0 0.0 0.0 0 0 0 1.0 1.0
0.0 0.0 0.0 0 0 0 1.0 1.0
0.0 0.0 0.0 0 0 0 1.0 1.0
0.0 0.0 0.0 0 0 0 1.0 1.0
0.0 0.0 0.0 0 0 0 1.0 1.0
0.0 0.0 0.0 0 0 0 1.0 1.0
0.0 0.0 0.0 0 0 0 1.0 1.0
0.0 0.0 0.0 0 0 0 1.0 1.0
0.0 0.0 0.0 0 0 0 1.0 1.0
0.0 0.0 0.0 0 0 0 1.0 1.0
0.0 0.0 0.0 0 0 0 1.0 1.0
0.0 0.0 0.0 0 0 0 1.0 1.0
0.0 0.0 0.0 0 0 0 1.0 1.0
0.0 0.0 0.0 0 0 0 1.0 1.0
0.0 0.0 0.0 0 0 0 1.0 1.0
0.0 0.0 0.0 0 0 0 1.0 1.0
0.0 0.0 0.0 0 0 0 1.0 1.0
0.0 0.0 0.0 0 0 0 1.0 1.0
0.0 0.0 0.0 0 0 0 1.0 1.0
0.0 0.0 0.0 0 0 0 1.0 1.0
0.0 0.0 0.0 0 0 0 1.0 1.0
0.0 0.0 0.0 0 0 0 1.0 1.0
0.0 0.0 0.0 0 0 0 1.0 1.0
0.0 0.0 0.0 0 0 0 1.0 1.0
0.0 0.0 0.0 0 0 0 1.0 1.0
0.0 0.0 0.0 0 0 0 1.0 1.0
0.0 0.0 0.0 0 0 0 1.0 1.0
0.0 0.0 0.0 0 0 0 1.0 1.0
0.0 0.0 0.0 0 0 0 1.0 1.0
0.0 0.0 0.0 0 0 0 1.0 1.0
0.0 0.0 0.0 0 0 0 1.0 1.0
0.0 0.0 0.0 0 0 0 1.0 1.0
0.0 0.0 0.0 0 0 0 1.0 1.0
0.0 0.0 0.0 0 0 0 1.0 1.0
0.0 0.0 0.0 0 0 0 1.0 1.0
0.0 0.0 0.0 0 0 0 1.0 1.0
0.0 0.0 0.0 0 0 0 1.0 1.0
0.0 0.0 0.0 0 0 0 1.0 1.0
0.0 0.0 0.0 0 0 0 1.0 1.0
0.0 0.0 0.0 0 0 0 1.0 1.0
0.0 0.0 0.0 0 0 0 1.0 1.0
0.0 0.0 0.0 0 0 0 1.0 1.0
0.0 0.0 0.0 0 0 0 1.0 1.0
0.0 0.0 0.0 0 0 0 1.0 1.0
0.0 0.0 0.0 0 0 0 1.0 1.0
0.0 0.0 0.0 0 0 0 1.0 1.0
0.0 0.0 0.0 0 0 0 1.0 1.0
0.0 0.0 0.0 0 0 0 1.0 1.0
0.0 0.0 0.0 0 0 0 1.0 1.0
0.0 0.0 0.0 0 0 0 1.0 1.0
0.0 0.0 0.0 0 0 0 1.0 1.0
0.0 0.0 0.0 0 0 0 1.0 1.0
0.0 0.0 0.0 0 0 0 1.0 1.0
0.0 0.0 0.0 0 0 0 1.0 1.0
0.0 0.0 0.0 0 0 0 1.0 1.0
0.0 0.0 0.0 0 0 0 1.0 1.0
0.0 0.0 0.0 0 0 0 1.0 1.0
0.0 0.0 0.0 0 0 0 1.0 1.0
0.0 0.0 0.0 0 0 0 1.0 1.0
0.0 0.0 0.0 0 0 0 1.0 1.0
0.0 0.0 0.0 0 0 0 1.0 1.0
0.0 0.0 0.0 0 0 0 1.0 1.0
0.0 0.0 0.0 0 0 0 1.0 1.0
0.0 0.0 0.0 0 0 0 1.0 1.0
0.0 0.0 0.0 0 0 0 1.0 1.0
0.0 0.0 0.0 0 0 0 1.0 1.0
0.0 0.0 0.0 0 0 0 1.0 1.0
0.0 0.0 0.0 0 0 0 1.0 1.0
0.0 0.0 0.0 0 0 0 1.0 1.0
0.0 0.0 0.0 0 0 0 1.0 1.0
0.0 0.0 0.0 0 0 0 1.0 1.0
0.0 0.0 0.0 0 0 0 1.0 1.0
0.0 0.0 0.0 0 0 0 1.0 1.0
0.0 0.0 0.0 0 0 0 1.0 1.0
0.0 0.0 0.0 0 0 0 1.0 1.0
0.0 0.0 0.0 0 0 0 1.0 1.0
0.0 0.0 0.0 0 0 0 1.0 1.0
0.0 0.0 0.0 0 0 0 1.0 1.0
0.0 0.0 0.0 0 0 0 1.0 1.0
0.0 0.0 0.0 0 0 0 1.0 1.0
0.0 0.0 0.0 0 0 0 1.0 1.0
0.0 0.0 0.0 0 0 0 1.0 1.0
0.0 0.0 0.0 0 0 0 1.0 1.0
0.0 0.0 0.0 0 0 0 1.0 1.0
0.0 0.0 0.0 0 0 0 1.0 1.0
0.0 0.0 0.0 0 0 0 1.0 1.0
0.0 0.0 0.0 0 0 0 1.0 1.0
0.0 0.0 0.0 0 0 0 1.0 1.0
0.0 0.0 0.0 0 0 0 1.0 1.0
0.0 0.0 0.0 0 0 0 1.0 1.0
0.0 0.0 0.0 0 0 0 1.0 1.0
0.0 0.0 0.0 0 0 0 1.0 1.0
0.0 0.0 0.0 0 0 0 1.0 1.0
0.0 0.0 0.0 0 0 0 1.0 1.0
0.0 0.0 0.0 0 0 0 1.0 1.0
0.0 0.0 0.0 0 0 0 1.0 1.0
0.0 0.0 0.0 0 0 0 1.0 1.0
0.0 0.0 0.0 0 0 0 1.0 1.0
0.0 0.0 0.0 0 0 0 1.0 1.0
0.0 0.0 0.0 0 0 0 1.0 1.0
0.0 0.0 0.0 0 0 0 1.0 1.0
0.0 0.0 0.0 0 0 0 1.0 1.0
0.0 0.0 0.0 0 0 0 1.0 1.0
0.0 0.0 0.0 0 0 0 1.0 1.0
0.0 0.0 0.0 0 0 0 1.0 1.0
0.0 0.0 0.0 0 0 0 1.0 1.0
0.0 0.0 0.0 0 0 0 1.0 1.0
0.0 0.0 0.0 0 0 0 1.0 1.0
0.0 0.0 0.0 0 0 0 1.0 1.0
0.0 0.0 0.0 0 0 0 1.0 1.0
0.0 0.0 0.0 0 0 0 1.0 1.0
0.0 0.0 0.0 0 0 0 1.0 1.0
0.0 0.0 0.0 0 0 0 1.0 1.0
0.0 0.0 0.0 0 0 0 1.0 1.0
0.0 0.0 0.0 0 0 0 1.0 1.0
0.0 0.0 0.0 0 0 0 1.0 1.0
0.0 0.0 0.0 0 0 0 1.0 1.0
0.0 0.0 0.0 0 0 0 1.0 1.0
0.0 0.0 0.0 0 0 0 1.0 1.0
0.0 0.0 0.0 0 0 0 1.0 1.0
0.0 0.0 0.0 0 0 0 1.0 1.0
0.0 0.0 0.0 0 0 0 1.0 1.0
0.0 0.0 0.0 0 0 0 1.0 1.0
0.0 0.0 0.0 0 0 0 1.0 1.0
0.0 0.0 0.0 0 0 0 1.0 1.0
0.0 0.0 0.0 0 0 0 1.0 1.0
0.0 0.0 0.0 0 0 0 1.0 1.0
0.0 0.0 0.0 0 0 0 1.0 1.0
0.0 0.0 0.0 0 0 0 1.0 1.0
0.0 0.0 0.0 0 0 0 1.0 1.0
0.0 0.0 0.0 0 0 0 1.0 1.0
0.0 0.0 0.0 0 0 0 1.0 1.0
0.0 0.0 0.0 0 0 0 1.0 1.0
0.0 0.0 0.0 0 0 0 1.0 1.0
0.0 0.0 0.0 0 0 0 1.0 1.0
0.0 0.0 0.0 0 0 0 1.0 1.0
0.0 0.0 0.0 0 0 0 1.0 1.0
0.0 0.0 0.0 0 0 0 1.0 1.0
0.0 0.0 0.0 0 0 0 1.0 1.0
0.0 0.0 0.0 0 0 0 1.0 1.0
0.0 0.0 0.0 0 0 0 1.0 1.0
0.0 0.0 0.0 0 0 0 1.0 1.0
0.0 0.0 0.0 0 0 0 1.0 1.0
0.0 0.0 0.0 0 0 0 1.0 1.0
0.0 0.0 0.0 0 0 0 1.0 1.0
0.0 0.0 0.0 0 0 0 1.0 1.0
0.0 0.0 0.0 0 0 0 1.0 1.0
0.0 0.0 0.0 0 0 0 1.0 1.0
0.0 0.0 0.0 0 0 0 1.0 1.0
0.0 0.0 0.0 0 0 0 1.0 1.0
0.0 0.0 0.0 0 0 0 1.0 1.0
0.0 0.0 0.0 0 0 0 1.0 1.0
0.0 0.0 0.0 0 0 0 1.0 1.0
0.0 0.0 0.0 0 0 0 1.0 1.0
0.0 0.0 0.0 0 0 0 1.0 1.0
0.0 0.0 0.0 0 0 0 1.0 1.0
0.0 0.0 0.0 0 0 0 1.0 1.0
0.0 0.0 0.0 0 0 0 1.0 1.0
0.0 0.0 0.0 0 0 0 1.0 1.0
0.0 0.0 0.0 0 0 0 1.0 1.0
0.0 0.0 0.0 0 0 0 1.0 1.0
0.0 0.0 0.0 0 0 0 1.0 1.0
0.0 0.0 0.0 0 0 0 1.0 1.0
0.0 0.0 0.0 0 0 0 1.0 1.0
0.0 0.0 0.0 0 0 0 1.0 1.0
0.0 0.0 0.0 0 0 0 1.0 1.0
0.0 0.0 0.0 0 0 0 1.0 1.0
0.0 0.0 0.0 0 0 0 1.0 1.0
0.0 0.0 0.0 0 0 0 1.0 1.0
0.0 0.0 0.0 0 0 0 1.0 1.0
0.0 0.0 0.0 0 0 0 1.0 1.0
0.0 0.0 0.0 0 0 0 1.0 1.0
0.0 0.0 0.0 0 0 0 1.0 1.0
0.0 0.0 0.0 0 0 0 1.0 1.0
0.0 0.0 0.0 0 0 0 1.0 1.0
0.0 0.0 0.0 0 0 0 1.0 1.0
0.0 0.0 0.0 0 0 0 1.0 1.0
0.0 0.0 0.0 0 0 0 1.0 1.0
0.0 0.0 0.0 0 0 0 1.0 1.0
0.0 0.0 0.0 0 0 0 1.0 1.0
0.0 0.0 0.0 0 0 0 1.0 1.0
0.0 0.0 0.0 0 0 0 1.0 1.0
0.0 0.0 0.0 0 0 0 1.0 1.0
0.0 0.0 0.0 0 0 0 1.0 1.0
0.0 0.0 0.0 0 0 0 1.0 1.0
0.0 0.0 0.0 0 0 0 1.0 1.0
0.0 0.0 0.0 0 0 0 1.0 1.0
0.0 0.0 0.0 0 0 0 1.0 1.0
0.0 0.0 0.0 0 0 0 1.0 1.0
0.0 0.0 0.0 0 0 0 1.0 1.0
0.0 0.0 0.0 0 0 0 1.0 1.0
0.0 0.0 0.0 0 0 0 1.0 1.0
0.0 0.0 0.0 0 0 0 1.0 1.0
0.0 0.0 0.0 0 0 0 1.0 1.0
0.0 0.0 0.0 0 0 0 1.0 1.0
0.0 0.0 0.0 0 0 0 1.0 1.0
0.0 0.0 0.0 0 0 0 1.0 1.0
0.0 0.0 0.0 0 0 0 1.0 1.0
0.0 0.0 0.0 0 0 0 1.0 1.0
0.0 0.0 0.0 0 0 0 1.0 1.0
0.0 0.0 0.0 0 0 0 1.0 1.0
0.0 0.0 0.0 0 0 0 1.0 1.0
0.0 0.0 0.0 0 0 0 1.0 1.0
0.0 0.0 0.0 0 0 0 1.0 1.0
0.0 0.0 0.0 0 0 0 1.0 1.0
0.0 0.0 0.0 0 0 0 1.0 1.0
0.0 0.0 0.0 0 0 0 1.0 1.0
0.0 0.0 0.0 0 0 0 1.0 1.0
0.0 0.0 0.0 0 0 0 1.0 1.0
0.0 0.0 0.0 0 0 0 1.0 1.0
0.0 0.0 0.0 0 0 0 1.0 1.0
0.0 0.0 0.0 0 0 0 1.0 1.0
0.0 0.0 0.0 0 0 0 1.0 1.0
0.0 0.0 0.0 0 0 0 1.0 1.0
0.0 0.0 0.0 0 0 0 1.0 1.0
0.0 0.0 0.0 0 0 0 1.0 1.0
0.0 0.0 0.0 0 0 0 1.0 1.0
0.0 0.0 0.0 0 0 0 1.0 1.0
0.0 0.0 0.0 0 0 0 1.0 1.0
